<svg height="464pt" viewBox="0 0 464 464.01766" width="464pt" xmlns="http://www.w3.org/2000/svg"><path d="m173.996094 40.019531c-26.234375-36.546875-74.332032-49.976562-115.703125-32.300781-41.367188 17.671875-64.917969 61.707031-56.648438 105.925781 8.269531 44.222657 46.140625 76.769531 91.101563 78.300781 44.960937 1.527344 84.953125-28.371093 96.210937-71.925781 7.101563-27.566406 1.621094-56.863281-14.960937-80zm0 0" fill="#ab2300"/><path d="m463.996094 120.019531v328c-.027344 8.824219-7.175782 15.972657-16 16h-392c-8.824219-.027343-15.972656-7.175781-16-16v-274c25.738281 18.460938 58.929687 23.042969 88.707031 12.25 29.78125-10.796875 52.324219-35.582031 60.253906-66.25zm0 0" fill="#ffcd00"/><path d="m188.957031 120.019531h275.039063v-64c0-8.839843-7.164063-16-16-16h-274c16.582031 23.136719 22.0625 52.433594 14.960937 80zm0 0" fill="#006468"/><g fill="#ab2300"><path d="m175.996094 224.019531h32v32h-32zm0 0"/><path d="m239.996094 224.019531h32v32h-32zm0 0"/><path d="m303.996094 224.019531h32v32h-32zm0 0"/><path d="m367.996094 224.019531h32v32h-32zm0 0"/><path d="m111.996094 288.019531h32v32h-32zm0 0"/><path d="m175.996094 288.019531h32v32h-32zm0 0"/><path d="m239.996094 288.019531h32v32h-32zm0 0"/><path d="m303.996094 288.019531h32v32h-32zm0 0"/><path d="m367.996094 288.019531h32v32h-32zm0 0"/><path d="m111.996094 352.019531h32v32h-32zm0 0"/><path d="m175.996094 352.019531h32v32h-32zm0 0"/><path d="m239.996094 352.019531h32v32h-32zm0 0"/></g><path d="m127.996094 136.019531c-2.121094-.003906-4.15625-.84375-5.65625-2.347656l-32-32c-1.5-1.5-2.34375-3.53125-2.34375-5.652344v-56c0-4.421875 3.582031-8 8-8 4.417968 0 8 3.578125 8 8v52.6875l29.65625 29.65625c2.285156 2.285157 2.972656 5.726563 1.734375 8.714844s-4.15625 4.9375-7.390625 4.941406zm0 0" fill="#f1f2f2"/></svg>